<svg width="50" height="50" viewBox="0 0 50 50" fill="none" xmlns="http://www.w3.org/2000/svg">
<g clip-path="url(#clip0_595_149)">
<path d="M39.8236 2.72761L11.6472 30.9041L11.6843 6.43992C11.6843 5.04184 11.1289 3.70102 10.1403 2.71242C9.15173 1.72383 7.81091 1.16844 6.41283 1.16844C5.01474 1.16844 3.67392 1.72383 2.68533 2.71242C1.69673 3.70102 1.14134 5.04184 1.14135 6.43992L1.14135 43.563C1.15643 44.2541 1.30782 44.9353 1.58682 45.5677C2.11933 46.8428 3.13308 47.8565 4.40818 48.389C5.04056 48.668 5.7218 48.8194 6.41283 48.8345L43.5359 48.8345C44.229 48.8373 44.9157 48.7029 45.5566 48.439C46.1974 48.1751 46.7797 47.7869 47.2698 47.2969C47.7598 46.8068 48.148 46.2245 48.4119 45.5837C48.6758 44.9428 48.8102 44.2561 48.8074 43.563C48.8102 42.87 48.6758 42.1832 48.4119 41.5424C48.148 40.9015 47.7598 40.3193 47.2698 39.8292C46.7797 39.3391 46.1974 38.9509 45.5566 38.687C44.9157 38.4231 44.229 38.2887 43.5359 38.2915L19.0718 38.3287L47.2482 10.1522C48.2328 9.16767 48.7859 7.83231 48.7859 6.43992C48.7859 5.04753 48.2328 3.71218 47.2482 2.72762C46.2637 1.74305 44.9283 1.18992 43.5359 1.18992C42.1435 1.18992 40.8082 1.74305 39.8236 2.72761Z" fill="#FFF500"/>
</g>
<defs>
<clipPath id="clip0_595_149">
<rect width="50" height="50" fill="white" transform="translate(50 50) rotate(180)"/>
</clipPath>
</defs>
</svg>
