<svg width="24" height="24" viewBox="0 0 24 24" fill="none" xmlns="http://www.w3.org/2000/svg">
<path d="M9.17643 16.2426L14.5434 10.8756L14.5363 15.5355C14.5363 15.8018 14.6421 16.0572 14.8304 16.2455C15.0187 16.4338 15.2741 16.5396 15.5404 16.5396C15.8067 16.5396 16.0621 16.4338 16.2504 16.2455C16.4387 16.0572 16.5445 15.8018 16.5445 15.5355L16.5445 8.46439C16.5416 8.33277 16.5128 8.20301 16.4596 8.08256C16.3582 7.83968 16.1651 7.64658 15.9222 7.54516C15.8018 7.49201 15.672 7.46318 15.5404 7.4603L8.46932 7.4603C8.33731 7.45976 8.2065 7.48536 8.08443 7.53563C7.96236 7.5859 7.85146 7.65984 7.75811 7.75319C7.66477 7.84653 7.59083 7.95744 7.54056 8.0795C7.49029 8.20157 7.46469 8.33238 7.46523 8.46439C7.46469 8.59641 7.49029 8.72722 7.54056 8.84928C7.59083 8.97135 7.66477 9.08225 7.75811 9.1756C7.85146 9.26895 7.96236 9.34289 8.08443 9.39316C8.2065 9.44342 8.33731 9.46903 8.46932 9.46848L13.1292 9.46141L7.76221 14.8284C7.57468 15.0159 7.46932 15.2702 7.46932 15.5355C7.46932 15.8007 7.57468 16.055 7.76221 16.2426C7.94975 16.4301 8.2041 16.5355 8.46932 16.5355C8.73453 16.5355 8.98889 16.4301 9.17643 16.2426Z" fill="#8E8E91"/>
</svg>
