<svg width="30" height="31" viewBox="0 0 30 31" fill="none" xmlns="http://www.w3.org/2000/svg">
<g id="svg">
<g id="sofa">
<path id="Vector" d="M7.2672 24.1H22.7328C23.8645 24.1 24.9499 23.6504 25.7502 22.8502C26.5504 22.0499 27 20.9645 27 19.8328V16.9C27 16.2635 26.7471 15.653 26.2971 15.2029C25.847 14.7529 25.2365 14.5 24.6 14.5C23.9635 14.5 23.353 14.7529 22.9029 15.2029C22.4529 15.653 22.2 16.2635 22.2 16.9V18.34C22.2 18.5946 22.0989 18.8388 21.9188 19.0188C21.7388 19.1989 21.4946 19.3 21.24 19.3H8.76C8.50539 19.3 8.26121 19.1989 8.08118 19.0188C7.90114 18.8388 7.8 18.5946 7.8 18.34V16.9C7.8 16.2635 7.54714 15.653 7.09706 15.2029C6.64697 14.7529 6.03652 14.5 5.4 14.5C4.76348 14.5 4.15303 14.7529 3.70294 15.2029C3.25286 15.653 3 16.2635 3 16.9V19.8328C3 20.9645 3.44958 22.0499 4.24983 22.8502C5.05009 23.6504 6.13547 24.1 7.2672 24.1Z" stroke="black" stroke-width="3"/>
<path id="Vector_2" d="M24.6004 14.5C24.6004 13.384 24.6004 12.8272 24.508 12.364C24.3228 11.4328 23.8656 10.5774 23.1943 9.9061C22.5229 9.23475 21.6676 8.77758 20.7364 8.5924C20.2732 8.5 19.7164 8.5 18.6004 8.5H11.4004C10.2844 8.5 9.72759 8.5 9.26439 8.5924C8.3332 8.77758 7.47784 9.23475 6.80649 9.9061C6.13515 10.5774 5.67797 11.4328 5.49279 12.364C5.40039 12.8272 5.40039 13.384 5.40039 14.5" stroke="black" stroke-width="3"/>
<path id="Vector_3" d="M24.6004 25.3V24.1M5.40039 25.3V24.1" stroke="black" stroke-width="3" stroke-linecap="round"/>
</g>
</g>
</svg>
