<svg width="28" height="20" viewBox="0 0 28 20" fill="none" xmlns="http://www.w3.org/2000/svg">
<path d="M13.9998 14.3328C16.3928 14.3328 18.3327 12.3929 18.3327 9.99998C18.3327 7.60702 16.3928 5.66714 13.9998 5.66714C11.6069 5.66714 9.66699 7.60702 9.66699 9.99998C9.66699 12.3929 11.6069 14.3328 13.9998 14.3328Z" stroke="#1C1C22" stroke-width="2"/>
<path d="M25.8261 8.46039C26.3864 9.14209 26.6666 9.4815 26.6666 9.99999C26.6666 10.5185 26.3864 10.8579 25.8261 11.5396C23.7752 14.0295 19.2517 18.6657 14.0003 18.6657C8.74891 18.6657 4.22543 14.0295 2.17455 11.5396C1.61417 10.8579 1.33398 10.5185 1.33398 9.99999C1.33398 9.4815 1.61417 9.14209 2.17455 8.46039C4.22543 5.97046 8.74891 1.33432 14.0003 1.33432C19.2517 1.33432 23.7752 5.97046 25.8261 8.46039Z" stroke="#1C1C22" stroke-width="2"/>
</svg>
