<svg width="40" height="40" viewBox="0 0 40 40" fill="none" xmlns="http://www.w3.org/2000/svg">
<g id="logo">
<g clip-path="url(#clip0_2193_1276)">
<path id="Vector" d="M20 0H0V20H20V0Z" fill="#085EA7"/>
<path id="Vector_2" d="M40 20H20V40H40V20Z" fill="#085EA7"/>
<path id="Vector_3" d="M40 0H20V20H40V0Z" fill="#F3A51D"/>
<path id="Vector_4" d="M20 20H0V40H20V20Z" fill="#F3A51D"/>
<path id="Vector_5" d="M26.4419 19.9779V19.9998C26.4419 20.8646 26.5885 21.6781 26.8743 22.411C27.1601 23.1512 27.5705 23.7888 28.0909 24.3164C28.6112 24.8441 29.2342 25.2545 29.967 25.5477C30.6999 25.8335 31.506 25.98 32.3855 25.98C33.2649 25.98 34.1224 25.8335 34.9652 25.5477C35.1631 25.4744 35.3683 25.3938 35.5661 25.3058V19.5308H40.0073V28.7723C38.996 29.3732 37.882 29.8569 36.6508 30.2087C35.0825 30.6704 33.5361 30.8976 32.0191 30.8976C30.3408 30.8976 28.7944 30.6264 27.402 30.1061C26.1634 29.6371 25.0861 28.9921 24.1261 28.1787L24.1334 30.773H18.5562L18.5269 19.9998V19.4502L18.1971 19.9998L13.0304 28.6624H10.3481L5.03481 19.9998L4.88091 19.758V30.773H0V9.41721H4.27263L10.7219 19.9998L11.7919 21.7514L12.8325 19.9998L19.1059 9.41721H24.0748L24.0821 11.843C25.0641 11.0075 26.1854 10.3406 27.4606 9.86426C28.8824 9.33659 30.4507 9.06543 32.1656 9.06543C34.1224 9.06543 35.8813 9.40255 37.4423 10.0621C38.395 10.4579 39.2525 10.9709 40 11.5938V14.1002L37.5302 16.3355C36.812 15.5367 36.0352 14.9504 35.207 14.5693C34.3789 14.1882 33.4555 13.9976 32.4368 13.9976C31.5354 13.9976 30.7145 14.1369 29.9743 14.4154C29.2342 14.6939 28.6039 15.0969 28.0835 15.6319C27.5705 16.1596 27.1601 16.8045 26.867 17.5374C26.5812 18.2629 26.4346 19.0764 26.4419 19.9779Z" fill="white"/>
</g>
</g>
<defs>
<clipPath id="clip0_2193_1276">
<rect width="40" height="40" rx="10" fill="white"/>
</clipPath>
</defs>
</svg>
