<svg width="24" height="24" viewBox="0 0 24 24" fill="none" xmlns="http://www.w3.org/2000/svg">
<g id="svg">
<path id="Vector" d="M9.17716 16.2426L14.5441 10.8756L14.537 15.5355C14.537 15.8018 14.6428 16.0572 14.8311 16.2455C15.0194 16.4338 15.2748 16.5396 15.5411 16.5396C15.8074 16.5396 16.0628 16.4338 16.2511 16.2455C16.4394 16.0572 16.5452 15.8018 16.5452 15.5355L16.5452 8.46439C16.5423 8.33277 16.5135 8.20301 16.4604 8.08256C16.3589 7.83968 16.1658 7.64658 15.923 7.54516C15.8025 7.49201 15.6727 7.46318 15.5411 7.4603L8.47005 7.4603C8.33804 7.45976 8.20723 7.48536 8.08516 7.53563C7.9631 7.5859 7.85219 7.65984 7.75885 7.75319C7.6655 7.84653 7.59156 7.95744 7.54129 8.0795C7.49102 8.20157 7.46542 8.33238 7.46596 8.46439C7.46542 8.59641 7.49102 8.72722 7.54129 8.84928C7.59156 8.97135 7.6655 9.08225 7.75885 9.1756C7.85219 9.26895 7.9631 9.34289 8.08516 9.39316C8.20723 9.44342 8.33804 9.46903 8.47005 9.46848L13.1299 9.46141L7.76295 14.8284C7.57541 15.0159 7.47005 15.2702 7.47005 15.5355C7.47005 15.8007 7.57541 16.055 7.76295 16.2426C7.95048 16.4301 8.20483 16.5355 8.47005 16.5355C8.73527 16.5355 8.98962 16.4301 9.17716 16.2426Z" fill="#8E8E91"/>
</g>
</svg>
