<svg width="20" height="26" viewBox="0 0 20 26" fill="none" xmlns="http://www.w3.org/2000/svg">
<mask id="path-1-outside-1_490_3218" maskUnits="userSpaceOnUse" x="0.307617" y="0" width="20" height="26" fill="black">
<rect fill="white" x="0.307617" width="20" height="26"/>
<path d="M2.97355 6.04444L9.99992 3L17.0263 6.04444C17.2241 6.13018 17.3926 6.27275 17.511 6.45447C17.6294 6.6362 17.6924 6.84907 17.6922 7.06667V14.6867C17.6924 15.862 17.3852 17.0165 16.8018 18.0332C16.2184 19.0498 15.3795 19.8924 14.3703 20.4756L9.99992 23L5.62959 20.4744C4.62065 19.8915 3.78202 19.0492 3.19864 18.033C2.61527 17.0168 2.30788 15.8628 2.30762 14.6878V7.06667C2.30764 6.84925 2.37075 6.63663 2.48912 6.45512C2.60749 6.27362 2.77592 6.13122 2.97355 6.04556"/>
</mask>
<path d="M9.99992 3L10.7951 1.16486L9.99992 0.820332L9.20478 1.16486L9.99992 3ZM17.0263 6.04444L17.8217 4.2094L17.8214 4.2093L17.0263 6.04444ZM17.6922 7.06667L15.6922 7.06491V7.06667H17.6922ZM17.6922 14.6867H15.6922L15.6922 14.6869L17.6922 14.6867ZM14.3703 20.4756L15.3706 22.2074L15.3709 22.2073L14.3703 20.4756ZM9.99992 23L8.99923 24.7316L9.9997 25.3098L11.0003 24.7318L9.99992 23ZM5.62959 20.4744L6.63029 18.7428L6.63021 18.7427L5.62959 20.4744ZM2.30762 14.6878H0.307617V14.6882L2.30762 14.6878ZM2.30762 7.06667L0.307617 7.06645V7.06667H2.30762ZM3.7687 7.87959L10.7951 4.83514L9.20478 1.16486L2.17841 4.2093L3.7687 7.87959ZM9.20478 4.83514L16.2312 7.87959L17.8214 4.2093L10.7951 1.16486L9.20478 4.83514ZM16.2309 7.87949C16.0664 7.80817 15.9297 7.69112 15.8353 7.54617L19.1868 5.36278C18.8556 4.85439 18.3818 4.45219 17.8217 4.2094L16.2309 7.87949ZM15.8353 7.54617C15.741 7.40145 15.6921 7.23416 15.6922 7.06491L19.6922 7.06843C19.6928 6.46397 19.5178 5.87094 19.1868 5.36278L15.8353 7.54617ZM15.6922 7.06667V14.6867H19.6922V7.06667H15.6922ZM15.6922 14.6869C15.6923 15.5139 15.4761 16.325 15.0671 17.0377L18.5364 19.0286C19.2942 17.7081 19.6924 16.2102 19.6922 14.6865L15.6922 14.6869ZM15.0671 17.0377C14.6582 17.7503 14.0718 18.3381 13.3696 18.7439L15.3709 22.2073C16.6872 21.4466 17.7786 20.3493 18.5364 19.0286L15.0671 17.0377ZM13.3699 18.7437L8.99956 21.2682L11.0003 24.7318L15.3706 22.2074L13.3699 18.7437ZM11.0006 21.2684L6.63029 18.7428L4.6289 22.2061L8.99923 24.7316L11.0006 21.2684ZM6.63021 18.7427C5.92826 18.3371 5.34205 17.7495 4.93315 17.0373L1.46414 19.0287C2.22198 20.3489 3.31304 21.4458 4.62898 22.2061L6.63021 18.7427ZM4.93315 17.0373C4.52416 16.3248 4.3078 15.5141 4.30762 14.6873L0.307617 14.6882C0.30796 16.2114 0.706377 17.7088 1.46414 19.0287L4.93315 17.0373ZM4.30762 14.6878V7.06667H0.307617V14.6878H4.30762ZM4.30762 7.06688C4.3076 7.23599 4.25862 7.4031 4.16434 7.54765L0.81389 5.3626C0.482878 5.87015 0.307683 6.46252 0.307617 7.06645L4.30762 7.06688ZM4.16434 7.54765C4.06992 7.69243 3.93332 7.80934 3.76893 7.8806L2.17817 4.21052C1.61853 4.45309 1.14506 4.8548 0.81389 5.3626L4.16434 7.54765Z" fill="#1C1C22" mask="url(#path-1-outside-1_490_3218)"/>
<path d="M13.0767 10.6923L8.97413 15.3076L6.92285 13" stroke="#1C1C22" stroke-width="2" stroke-linecap="round" stroke-linejoin="round"/>
</svg>
