<svg width="22" height="20" viewBox="0 0 22 20" fill="none" xmlns="http://www.w3.org/2000/svg">
<path d="M14.7042 8.54943C14.6772 8.56411 14.6488 8.58062 14.619 8.5992C14.3526 8.76539 13.7704 9.26959 13.2418 9.78908L13.2355 9.7953L13.2355 9.79527C13.1371 9.89031 13.025 9.96857 12.9039 10.028C12.9044 10.1228 12.8976 10.2179 12.8834 10.3125C12.8264 10.6915 12.6528 11.0445 12.3847 11.3208L12.3728 11.3329C12.2849 11.4205 12.1724 11.534 12.0246 11.6831C11.9708 11.7374 11.9123 11.7964 11.8487 11.8606C11.6122 12.099 11.3092 12.4038 10.921 12.7908C9.44268 14.2714 6.9194 17.1166 5.81992 18.4263L5.81752 18.4292C5.67371 18.5992 5.49599 18.7381 5.29504 18.8365C5.09405 18.9349 4.87454 18.9903 4.65041 18.9988C4.42627 19.0074 4.20311 18.9688 3.9951 18.8859C3.78712 18.803 3.59927 18.6778 3.44297 18.5189L3.44023 18.5161L1.96156 17.001C1.96141 17.0008 1.96125 17.0006 1.9611 17.0005C1.80531 16.8412 1.68457 16.6517 1.60577 16.4444C1.52691 16.2368 1.49157 16.0154 1.50169 15.794C1.51181 15.5725 1.5672 15.3551 1.66481 15.1555C1.76222 14.9563 1.89976 14.7788 2.06948 14.6346C3.33536 13.5539 6.1426 11.0129 7.64205 9.5095L7.64247 9.50907C8.28051 8.87014 8.69157 8.46051 8.95363 8.19935C9.01922 8.134 9.07547 8.07794 9.12361 8.02992L9.82984 8.7379L9.12017 8.03337C9.37612 7.77554 9.70476 7.60066 10.0636 7.53395C10.1542 7.51711 10.2455 7.5074 10.3367 7.50469C10.3889 7.3884 10.4584 7.27928 10.544 7.18134C10.8199 6.86544 11.071 6.54954 11.2461 6.2593C11.3326 6.11594 11.3891 5.99734 11.4217 5.90426C11.4519 5.81774 11.4531 5.77738 11.4531 5.77383C11.4532 5.7735 11.4532 5.77349 11.4532 5.77381L12.4519 5.72658L11.4532 5.77444C11.4216 5.11419 11.2385 4.74773 10.9048 4.47462C10.6895 4.30546 10.1738 4.09187 9.76395 4.05743L9.76338 4.05739C9.56954 4.04099 9.37435 4.05327 9.18388 4.09389C9.08796 4.11657 8.99342 4.14509 8.90079 4.17932C8.48889 4.3315 8.0259 4.19717 7.75941 3.84816C7.49292 3.49916 7.4853 3.01713 7.74061 2.65987L8.55421 3.24129C7.74061 2.65987 7.74065 2.65981 7.7407 2.65974L7.7408 2.6596L7.74101 2.65931L7.7415 2.65863L7.74274 2.6569L7.74624 2.65203L7.75725 2.63689C7.76629 2.62452 7.77874 2.60764 7.79411 2.58716C7.82468 2.54641 7.86768 2.49026 7.9191 2.42636C8.01536 2.30673 8.16556 2.12915 8.33203 1.97625C8.77839 1.56405 9.78254 1.00017 11.0578 1L14.7042 8.54943ZM14.7042 8.54943C14.6799 8.64601 14.6676 8.74534 14.6676 8.84518C14.6676 9.00405 14.6988 9.16164 14.7597 9.30888C14.8202 9.4554 14.9091 9.58917 15.0219 9.70215C15.0225 9.70275 15.0231 9.70334 15.0237 9.70394L16.3231 11.0089L16.3252 11.011C16.4403 11.1259 16.5778 11.2169 16.7299 11.2778C16.8757 11.3361 17.0316 11.3655 17.189 11.3641C17.5062 11.3635 17.8088 11.2386 18.0338 11.019L18.0339 11.019L18.0432 11.0096L20.1475 8.90044C20.1553 8.89262 20.163 8.88466 20.1705 8.87658C20.3834 8.64854 20.5 8.34912 20.5 8.04034C20.5 7.73156 20.3834 7.43214 20.1705 7.20411C20.1632 7.19627 20.1558 7.18855 20.1482 7.18094L18.8494 5.87652C18.8488 5.87592 18.8482 5.87532 18.8476 5.87473C18.7325 5.75863 18.5946 5.66666 18.4418 5.6051C18.295 5.54597 18.1379 5.51629 17.9794 5.51793C17.9501 5.51801 17.9208 5.51914 17.8917 5.52133C17.8667 5.3223 17.8009 5.07097 17.6296 4.82742L17.6178 4.81099C17.3222 4.40846 16.9981 4.02815 16.6479 3.67309L16.6479 3.67309L16.6448 3.66991C16.3284 3.35205 15.1674 2.2346 13.2244 1.43144C12.5374 1.14631 11.8016 0.999642 11.0584 1L14.7042 8.54943ZM17.1263 5.87285L17.1205 5.87867C17.1224 5.87671 17.1243 5.87478 17.1263 5.87285Z" stroke="#1C1C22" stroke-width="2" stroke-linecap="round" stroke-linejoin="round"/>
</svg>
