<svg width="36" height="20" viewBox="0 0 36 20" fill="none" xmlns="http://www.w3.org/2000/svg">
<g clip-path="url(#clip0_1222_1096)">
<path d="M23.7938 9.98245V10.0004C23.7938 10.7892 23.925 11.5247 24.1842 12.1889C24.4428 12.8625 24.8115 13.4381 25.2764 13.9211C25.746 14.4041 26.3073 14.7758 26.9649 15.0416C27.6224 15.3028 28.3466 15.436 29.1401 15.436C29.9335 15.436 30.7012 15.3035 31.4603 15.0416C31.6404 14.975 31.8198 14.8997 31.9999 14.8205V9.57074H36V17.9703C35.0918 18.5199 34.088 18.9536 32.9826 19.2774C31.5705 19.6984 30.1802 19.9063 28.8162 19.9063C27.3032 19.9063 25.9169 19.6625 24.6584 19.1841C23.5445 18.7591 22.571 18.1695 21.7109 17.434L21.7156 19.791H16.6938L16.6674 10.0004V9.50012L16.3732 10.0004L11.7241 17.8777H9.30751L4.53108 10.0004L4.39521 9.77926V19.7917H0V0.377732H3.84647L9.64916 10.0004L10.6095 11.5953L11.5434 10.0004L17.1878 0.377732H21.6615L21.6661 2.57955C22.5479 1.81741 23.5563 1.21516 24.7099 0.780788C25.9907 0.297787 27.4028 0.0539551 28.9468 0.0539551C30.7098 0.0539551 32.2934 0.359745 33.6969 0.957999C34.5563 1.32108 35.324 1.78676 35.9993 2.34904V4.62614L33.78 6.65541C33.131 5.92858 32.4332 5.39295 31.6879 5.04719C30.9426 4.70142 30.1089 4.52887 29.1922 4.52887C28.3809 4.52887 27.6442 4.65745 26.9774 4.90995C26.3106 5.16244 25.7447 5.53019 25.2758 6.01319C24.8108 6.49619 24.4421 7.07646 24.1836 7.74533C23.925 8.41886 23.7931 9.16302 23.7931 9.98245H23.7938Z" fill="#1C1C22"/>
</g>
<defs>
<clipPath id="clip0_1222_1096">
<rect width="36" height="20" fill="white"/>
</clipPath>
</defs>
</svg>
