<svg width="180" height="40" viewBox="0 0 180 40" fill="none" xmlns="http://www.w3.org/2000/svg">
<path d="M68.019 32.4084L67.9999 25.4815L64.5684 31.1202H62.8907L59.4592 25.6311V32.4086H55.9897V19.3386H59.0975L63.7874 26.8816L68.3626 19.3386H71.4704L71.5085 32.4084H68.019Z" fill="#0A60A7"/>
<path d="M85.0619 29.5518V32.4084H74.3481V19.3386H84.8144V22.1952H78.085V24.3985H84.0139V27.1619H78.085V29.5518H85.0619Z" fill="#0A60A7"/>
<path d="M96.9768 22.2701H90.9335V32.4084H87.2163V19.3386H96.9961L96.9768 22.2701Z" fill="#0A60A7"/>
<path d="M105.269 29.8691H99.626L98.5777 32.4086H94.7268L100.618 19.3389H104.335L110.245 32.4086H106.318L105.269 29.8691ZM104.163 27.1431L102.448 22.9605L100.731 27.1431H104.163Z" fill="#0A60A7"/>
<path d="M123.294 26.7326C123.707 27.2555 123.914 27.9029 123.914 28.6742C123.914 29.8317 123.453 30.7442 122.532 31.4095C121.61 32.0756 120.304 32.4086 118.614 32.4086H111.77V19.3386H118.252C119.853 19.3386 121.095 19.6342 121.978 20.2254C122.862 20.8166 123.303 21.6536 123.303 22.7368C123.303 23.3714 123.148 23.9316 122.837 24.4172C122.525 24.9024 122.077 25.2887 121.493 25.5747C122.281 25.8243 122.881 26.2097 123.294 26.7326ZM115.487 24.5666H117.889C118.957 24.5666 119.491 24.1369 119.491 23.2782C119.491 22.4191 118.957 21.9898 117.889 21.9898H115.487V24.5666ZM120.101 28.3943C120.101 27.5105 119.554 27.0687 118.461 27.0687H115.487V29.7572H118.461C119.554 29.7572 120.101 29.303 120.101 28.3943Z" fill="#0A60A7"/>
<path d="M128.708 31.7922C127.583 31.2072 126.7 30.3984 126.058 29.365C125.416 28.3316 125.095 27.1679 125.095 25.8734C125.095 24.5794 125.417 23.4151 126.058 22.3819C126.7 21.3489 127.583 20.54 128.708 19.9547C129.833 19.3697 131.101 19.0769 132.511 19.0769C133.922 19.0769 135.19 19.3697 136.315 19.9547C137.44 20.54 138.323 21.3489 138.965 22.3819C139.607 23.4153 139.927 24.579 139.927 25.8734C139.927 27.1679 139.606 28.3318 138.965 29.365C138.323 30.3982 137.44 31.2072 136.315 31.7922C135.19 32.3776 133.922 32.67 132.511 32.67C131.101 32.67 129.833 32.3776 128.708 31.7922ZM134.342 29.1411C134.888 28.8302 135.32 28.3912 135.638 27.8245C135.956 27.2582 136.114 26.6082 136.114 25.8734C136.114 25.1395 135.956 24.489 135.638 23.9223C135.32 23.356 134.888 22.9171 134.342 22.6058C133.795 22.2949 133.185 22.1393 132.511 22.1393C131.837 22.1393 131.228 22.2949 130.681 22.6058C130.135 22.9171 129.703 23.356 129.385 23.9223C129.067 24.489 128.909 25.1391 128.909 25.8734C128.909 26.6078 129.067 27.2582 129.385 27.8245C129.703 28.3912 130.135 28.8302 130.681 29.1411C131.228 29.4523 131.837 29.6076 132.511 29.6076C133.185 29.6076 133.795 29.4523 134.342 29.1411Z" fill="#0A60A7"/>
<path d="M154.016 19.3391V32.4088H150.298V22.2701H146.467L146.39 24.3986C146.327 26.2657 146.171 27.7847 145.923 28.9546C145.676 30.125 145.253 31.03 144.656 31.6712C144.058 32.3124 143.213 32.6325 142.12 32.6325C141.612 32.6325 141.04 32.5576 140.405 32.4086L140.614 29.384C140.779 29.4213 140.951 29.4398 141.129 29.4398C141.625 29.4398 142.006 29.2468 142.273 28.861C142.54 28.4753 142.731 27.9371 142.845 27.2461C142.96 26.5555 143.036 25.6565 143.074 24.5482L143.264 19.3389L154.016 19.3391Z" fill="#0A60A7"/>
<path d="M167.475 24.576C168.364 25.2917 168.809 26.3528 168.809 27.7591C168.809 29.2652 168.314 30.4165 167.322 31.2131C166.331 32.0102 164.952 32.4084 163.185 32.4084H156.875V19.3386H160.592V23.5021H163.681C165.32 23.5025 166.585 23.8603 167.475 24.576ZM164.453 29.253C164.828 28.9168 165.016 28.4441 165.016 27.8342C165.016 26.7017 164.322 26.1352 162.938 26.1352H160.592V29.7576H162.938C163.573 29.7572 164.078 29.5892 164.453 29.253Z" fill="#0A60A7"/>
<path d="M180 22.2701H175.92V32.4084H172.203V22.2701H168.104V19.3386H180V22.2701H180Z" fill="#0A60A7"/>
<path d="M59.6838 10.8969H61.3475V13.5971C60.9676 13.8641 60.53 14.0686 60.0355 14.2113C59.5409 14.3541 59.0468 14.4258 58.5526 14.4258C57.8555 14.4258 57.2279 14.2814 56.6703 13.9929C56.1128 13.7043 55.6753 13.3027 55.3583 12.787C55.0413 12.2719 54.8828 11.6883 54.8828 11.0367C54.8828 10.385 55.0413 9.80167 55.3583 9.28639C55.6753 8.7713 56.1157 8.36947 56.6796 8.0809C57.2434 7.79233 57.8805 7.64795 58.5905 7.64795C59.2114 7.64795 59.7695 7.75056 60.2637 7.95519C60.7578 8.15962 61.1699 8.45482 61.4996 8.83958L60.3022 9.90108C59.8519 9.41712 59.3135 9.17494 58.6863 9.17494C58.1157 9.17494 57.6562 9.34422 57.3078 9.68239C56.959 10.0206 56.785 10.4722 56.785 11.0369C56.785 11.3971 56.8641 11.7182 57.0226 12.0006C57.1811 12.2833 57.403 12.5036 57.688 12.6617C57.9734 12.8199 58.2996 12.8988 58.667 12.8988C59.0285 12.8988 59.3674 12.8275 59.6844 12.6848V10.8971L59.6838 10.8969Z" fill="#F2A61E"/>
<path d="M65.4535 12.5635H64.4267V14.2953H62.5444V7.77832H65.5866C66.1886 7.77832 66.7114 7.87612 67.1552 8.07151C67.5987 8.2669 67.9409 8.54643 68.182 8.9095C68.4231 9.27257 68.5431 9.6993 68.5431 10.1895C68.5431 10.6614 68.4307 11.0725 68.2058 11.4231C67.9808 11.7737 67.6591 12.0486 67.2407 12.247L68.6761 14.2955H66.6606L65.4535 12.5635ZM66.3475 9.48182C66.1509 9.31414 65.8593 9.2306 65.473 9.2306H64.4273V11.1391H65.473C65.8597 11.1391 66.1511 11.0568 66.3475 10.8923C66.5437 10.7281 66.6421 10.4937 66.6421 10.1893C66.6421 9.88546 66.5437 9.6495 66.3475 9.48182Z" fill="#F2A61E"/>
<path d="M71.0388 13.9881C70.4778 13.6964 70.0374 13.2931 69.7175 12.7776C69.3974 12.2626 69.2373 11.6822 69.2373 11.0364C69.2373 10.391 69.397 9.81062 69.7175 9.29514C70.0376 8.78005 70.478 8.37641 71.0388 8.08503C71.5998 7.79325 72.2321 7.64746 72.9354 7.64746C73.6387 7.64746 74.2712 7.79365 74.832 8.08503C75.393 8.37682 75.8334 8.78005 76.1533 9.29514C76.4733 9.81062 76.6335 10.3906 76.6335 11.0364C76.6335 11.6822 76.4733 12.2622 76.1533 12.7776C75.8332 13.2931 75.3928 13.6964 74.832 13.9881C74.271 14.2799 73.6387 14.4257 72.9354 14.4257C72.2321 14.4257 71.5996 14.2801 71.0388 13.9881ZM73.848 12.6664C74.1203 12.5112 74.3358 12.2925 74.4943 12.0101C74.6528 11.7278 74.7319 11.4033 74.7319 11.0368C74.7319 10.6709 74.6524 10.3466 74.4943 10.0639C74.3358 9.78151 74.1203 9.56282 73.848 9.40759C73.5753 9.25236 73.271 9.17485 72.9354 9.17485C72.5993 9.17485 72.2951 9.25276 72.0228 9.40759C71.7501 9.56282 71.5346 9.78151 71.3765 10.0639C71.218 10.3466 71.1388 10.6707 71.1388 11.0368C71.1388 11.4031 71.2178 11.7274 71.3765 12.0101C71.535 12.2925 71.7505 12.5116 72.0228 12.6664C72.2955 12.8216 72.5993 12.8991 72.9354 12.8991C73.271 12.8989 73.5753 12.8216 73.848 12.6664Z" fill="#F2A61E"/>
<path d="M78.3874 13.6346C77.8391 13.1073 77.5652 12.3591 77.5652 11.3908V7.77832H79.4475V11.3349C79.4475 12.3778 79.8688 12.8991 80.7117 12.8991C81.5483 12.8991 81.9668 12.3778 81.9668 11.3349V7.77832H83.8207V11.3908C83.8207 12.3591 83.5464 13.1071 82.9981 13.6346C82.4498 14.162 81.6814 14.4263 80.6927 14.4263C79.7042 14.4261 78.9353 14.162 78.3874 13.6346Z" fill="#F2A61E"/>
<path d="M89.7045 8.07131C90.1485 8.2667 90.4903 8.54623 90.7318 8.9093C90.9723 9.27237 91.0929 9.6991 91.0929 10.1893C91.0929 10.6799 90.9723 11.105 90.7318 11.4649C90.4909 11.8251 90.1485 12.1028 89.7045 12.2982C89.261 12.494 88.7382 12.5914 88.1364 12.5914H86.9765V14.2953H85.0942V7.77832H88.1364C88.7382 7.77832 89.261 7.87592 89.7045 8.07131ZM88.8967 10.8923C89.0933 10.7281 89.1913 10.4937 89.1913 10.1893C89.1913 9.88546 89.0933 9.6495 88.8967 9.48182C88.7001 9.31414 88.4085 9.2306 88.0222 9.2306H86.9765V11.1391H88.0222C88.4085 11.1389 88.7001 11.057 88.8967 10.8923Z" fill="#F2A61E"/>
<path d="M41.1214 1H21.0234V20.6838H41.1214V1Z" fill="#F2A61E"/>
<path d="M21.2416 1H1.14355V20.6838H21.2416V1Z" fill="#085FA7"/>
<path d="M41.1966 20.1592H21.0986V39.843H41.1966V20.1592Z" fill="#085FA7"/>
<path d="M21.2416 20.1855H1.14355V39.8693H21.2416V20.1855Z" fill="#F2A61E"/>
<path d="M36.6145 19.9737L41.896 19.9707L41.9012 28.5419C40.6953 29.3903 39.3069 30.0403 37.7371 30.4945C36.1673 30.9487 34.5988 31.1771 33.0303 31.178C30.8176 31.1792 28.8246 30.7216 27.0542 29.8068C25.2838 28.8917 23.8941 27.6177 22.8867 25.9807C21.8792 24.3464 21.3751 22.4937 21.3738 20.4251C21.3725 18.3564 21.8747 16.5045 22.8801 14.8676C23.8856 13.2322 25.2831 11.9552 27.0725 11.0382C28.8619 10.1212 30.8839 9.66141 33.1382 9.66016C35.1094 9.65908 36.8809 9.98398 38.45 10.6323C40.019 11.2807 41.3279 12.2169 42.3752 13.4373L38.5758 16.8093C37.1457 15.2738 35.4359 14.506 33.4445 14.5071C31.633 14.5082 30.1748 15.0464 29.0697 16.1208C27.9633 17.1951 27.4112 18.6294 27.4123 20.4218C27.413 21.5653 27.6645 22.5849 28.1683 23.481C28.6721 24.3783 29.3769 25.077 30.2816 25.5786C31.1877 26.0801 32.2237 26.3305 33.3897 26.33C34.537 26.3293 35.6131 26.1027 36.6192 25.6487L36.6159 19.9739L36.6145 19.9737Z" fill="white"/>
<path d="M19.7607 31.1315L19.7234 19.9706L14.1997 29.0587L11.4964 29.0603L5.96233 20.2192L5.96873 31.1394L0.378463 31.1426L0.366211 10.084L5.37347 10.0811L12.9371 22.2303L20.302 10.0727L25.3093 10.0698L25.383 31.1282L19.7607 31.1315Z" fill="white"/>
</svg>
