<svg width="24" height="25" viewBox="0 0 24 25" fill="none" xmlns="http://www.w3.org/2000/svg">
<path d="M9.17643 16.7426L14.5434 11.3756L14.5363 16.0355C14.5363 16.3018 14.6421 16.5572 14.8304 16.7455C15.0187 16.9338 15.2741 17.0396 15.5404 17.0396C15.8067 17.0396 16.0621 16.9338 16.2504 16.7455C16.4387 16.5572 16.5445 16.3018 16.5445 16.0355L16.5445 8.96439C16.5416 8.83277 16.5128 8.70301 16.4596 8.58256C16.3582 8.33968 16.1651 8.14658 15.9222 8.04516C15.8018 7.99201 15.672 7.96318 15.5404 7.9603L8.46932 7.9603C8.33731 7.95976 8.2065 7.98536 8.08443 8.03563C7.96236 8.0859 7.85146 8.15984 7.75811 8.25319C7.66477 8.34653 7.59083 8.45744 7.54056 8.5795C7.49029 8.70157 7.46469 8.83238 7.46523 8.96439C7.46469 9.09641 7.49029 9.22722 7.54056 9.34928C7.59083 9.47135 7.66477 9.58225 7.75811 9.6756C7.85146 9.76895 7.96236 9.84289 8.08443 9.89316C8.2065 9.94342 8.33731 9.96903 8.46932 9.96848L13.1292 9.96141L7.76221 15.3284C7.57468 15.5159 7.46932 15.7702 7.46932 16.0355C7.46932 16.3007 7.57468 16.555 7.76221 16.7426C7.94975 16.9301 8.2041 17.0355 8.46932 17.0355C8.73453 17.0355 8.98889 16.9301 9.17643 16.7426Z" fill="#1C1C22"/>
</svg>
