<svg width="20" height="22" viewBox="0 0 20 22" fill="none" xmlns="http://www.w3.org/2000/svg">
<path d="M4.46109 11H11.3853M4.46109 13.7697H14.155M4.46109 16.5394H8.6156M18.3095 17.9242V8.23035L11.3853 1.30615H4.46109C3.72652 1.30615 3.02204 1.59796 2.50263 2.11737C1.98321 2.63679 1.69141 3.34127 1.69141 4.07583V17.9242C1.69141 18.6588 1.98321 19.3633 2.50263 19.8827C3.02204 20.4021 3.72652 20.6939 4.46109 20.6939H15.5398C16.2744 20.6939 16.9788 20.4021 17.4983 19.8827C18.0177 19.3633 18.3095 18.6588 18.3095 17.9242Z" stroke="#1C1C22" stroke-width="2" stroke-linecap="round" stroke-linejoin="round"/>
<path d="M11.3853 1.30615V5.46067C11.3853 6.19524 11.6771 6.89971 12.1965 7.41913C12.7159 7.93855 13.4204 8.23035 14.1549 8.23035H18.3095" stroke="#1C1C22" stroke-width="2" stroke-linecap="round" stroke-linejoin="round"/>
</svg>
