<svg width="60" height="60" viewBox="0 0 60 60" fill="none" xmlns="http://www.w3.org/2000/svg">
<g id="svg">
<rect width="60" height="60" rx="30" fill="#FFF500"/>
<path id="vector" d="M24 29C23.4477 29 23 29.4477 23 30C23 30.5523 23.4477 31 24 31V29ZM35.9071 30.7071C36.2976 30.3166 36.2976 29.6834 35.9071 29.2929L29.5431 22.9289C29.1526 22.5384 28.5195 22.5384 28.1289 22.9289C27.7384 23.3195 27.7384 23.9526 28.1289 24.3431L33.7858 30L28.1289 35.6569C27.7384 36.0474 27.7384 36.6805 28.1289 37.0711C28.5195 37.4616 29.1526 37.4616 29.5431 37.0711L35.9071 30.7071ZM24 31H35.2V29H24V31Z" fill="#1C1C22"/>
</g>
</svg>
