<svg width="22" height="21" viewBox="0 0 22 21" fill="none" xmlns="http://www.w3.org/2000/svg">
<g id="svg">
<g id="Vector">
<mask id="path-1-outside-1_608_1338" maskUnits="userSpaceOnUse" x="0.249023" y="0.37207" width="22" height="21" fill="black">
<rect fill="white" x="0.249023" y="0.37207" width="22" height="21"/>
<path d="M11.8366 10.1486C11.7936 10.0704 11.74 9.99846 11.6772 9.93496L10.9608 9.22832C10.8872 9.15341 10.8003 9.09287 10.7046 9.04981C10.5539 8.98259 10.3864 8.96255 10.224 8.99232C10.0617 9.02209 9.91224 9.10028 9.7952 9.2166C9.54676 9.46113 9.09207 9.90723 8.27176 10.7178C6.70301 12.2697 3.79012 14.8709 2.47293 15.9803C2.40657 16.0358 2.35246 16.1045 2.31403 16.182C2.2756 16.2596 2.25369 16.3442 2.24969 16.4307C2.24569 16.5171 2.25968 16.6035 2.29078 16.6842C2.32188 16.765 2.36941 16.8384 2.43035 16.8998L3.95379 18.44C4.01514 18.5016 4.08856 18.5498 4.16942 18.5816C4.25029 18.6134 4.33686 18.6281 4.4237 18.6248C4.51053 18.6216 4.59576 18.6004 4.67401 18.5626C4.75226 18.5248 4.82185 18.4712 4.8784 18.4053C6.02059 17.0627 8.64012 14.1475 10.1909 12.615C10.9874 11.8314 11.4339 11.3814 11.6866 11.133C11.8119 11.0055 11.8939 10.8418 11.9208 10.6651C11.9478 10.4884 11.9183 10.3076 11.8366 10.1486ZM19.6886 8.35176L18.3483 7.02363C18.3279 7.0032 18.3035 6.98715 18.2766 6.97647C18.2497 6.96579 18.221 6.9607 18.1921 6.96152C18.1632 6.96104 18.1345 6.96628 18.1077 6.97694C18.0809 6.9876 18.0565 7.00347 18.0358 7.02363C17.9876 7.07211 17.9289 7.10885 17.8642 7.131C17.7995 7.15315 17.7306 7.16012 17.6628 7.15137C17.4878 7.13223 17.3014 7.07793 17.1811 6.96152C16.9077 6.69356 17.2237 6.16621 16.9831 5.82871C16.7083 5.45938 16.407 5.11055 16.0815 4.78496C15.8057 4.51152 14.7218 3.47754 12.896 2.73301C12.3133 2.49431 11.6897 2.37171 11.06 2.37207C10.0307 2.37207 9.23934 2.83145 8.95067 3.09512C8.72098 3.30293 8.48192 3.63301 8.48192 3.63301C8.61996 3.58268 8.76099 3.54094 8.90418 3.50801C9.2028 3.44402 9.50922 3.4244 9.81356 3.44981C10.4214 3.5002 11.1538 3.78535 11.5468 4.09395C12.18 4.60176 12.4522 5.28106 12.4948 6.15762C12.5261 6.80957 11.8999 7.63262 11.3057 8.30371C11.2535 8.36272 11.2259 8.43959 11.2288 8.51836C11.2318 8.59714 11.2649 8.67177 11.3214 8.72676L12.1511 9.55606C12.2089 9.61314 12.2866 9.64547 12.3678 9.6462C12.4491 9.64693 12.5274 9.616 12.5862 9.55996C13.1304 9.03223 13.8007 8.44785 14.1807 8.21387C14.5608 7.97988 14.8675 7.91387 15.0147 7.89785C15.3041 7.86983 15.595 7.93293 15.8468 8.07832C15.8911 8.1034 15.9316 8.13471 15.9671 8.17129C16.2194 8.42754 16.2042 8.84629 15.9475 9.09863L15.8694 9.17246C15.8491 9.19245 15.833 9.21629 15.822 9.24258C15.8109 9.26887 15.8053 9.29708 15.8053 9.32559C15.8053 9.35409 15.8109 9.38231 15.822 9.4086C15.833 9.43488 15.8491 9.45872 15.8694 9.47871L17.2097 10.8068C17.2302 10.8271 17.2546 10.843 17.2815 10.8536C17.3083 10.8642 17.337 10.8693 17.3659 10.8686C17.4241 10.8694 17.4802 10.8472 17.5222 10.8068L19.6886 8.66426C19.7285 8.62204 19.7508 8.56613 19.7508 8.50801C19.7508 8.44989 19.7285 8.39398 19.6886 8.35176Z"/>
</mask>
<path d="M11.8366 10.1486L13.6156 9.23474C13.6072 9.21837 13.5985 9.20211 13.5897 9.18598L11.8366 10.1486ZM11.6772 9.93496L13.0997 8.52903C13.0937 8.52301 13.0877 8.51702 13.0817 8.51108L11.6772 9.93496ZM10.9608 9.22832L9.53401 10.6298C9.54139 10.6373 9.54884 10.6448 9.55635 10.6522L10.9608 9.22832ZM10.7046 9.04981L11.5248 7.22574L11.5192 7.22325L10.7046 9.04981ZM9.7952 9.2166L11.1982 10.642L11.2051 10.6351L9.7952 9.2166ZM8.27176 10.7178L6.86604 9.29512L6.86518 9.29597L8.27176 10.7178ZM2.47293 15.9803L3.75643 17.5141L3.76132 17.51L2.47293 15.9803ZM2.43035 16.8998L3.8523 15.4934L3.8501 15.4911L2.43035 16.8998ZM3.95379 18.44L2.53183 19.8465L2.53736 19.852L3.95379 18.44ZM4.8784 18.4053L6.39688 19.7069L6.40172 19.7012L4.8784 18.4053ZM10.1909 12.615L8.78827 11.1893L8.78513 11.1924L10.1909 12.615ZM11.6866 11.133L13.0886 12.5593C13.0967 12.5514 13.1047 12.5434 13.1126 12.5353L11.6866 11.133ZM19.6886 8.35176L21.1413 6.97719C21.1266 6.9616 21.1116 6.94625 21.0963 6.93114L19.6886 8.35176ZM18.3483 7.02363L16.9345 8.43828L16.9405 8.44425L18.3483 7.02363ZM18.1921 6.96152L18.1583 8.96124C18.1885 8.96175 18.2187 8.96158 18.2489 8.96072L18.1921 6.96152ZM18.0358 7.02363L16.6384 5.59279C16.6315 5.59956 16.6246 5.60639 16.6178 5.61326L18.0358 7.02363ZM17.6628 7.15137L17.9187 5.16781C17.9059 5.16616 17.8931 5.16463 17.8802 5.16322L17.6628 7.15137ZM17.1811 6.96152L15.7812 8.38998L15.7904 8.39888L17.1811 6.96152ZM16.9831 5.82871L18.6116 4.66766C18.6037 4.65664 18.5957 4.64569 18.5877 4.63483L16.9831 5.82871ZM16.0815 4.78496L17.4961 3.37103L17.4897 3.36473L16.0815 4.78496ZM12.896 2.73301L12.1378 4.58373L12.1408 4.58495L12.896 2.73301ZM11.06 2.37207V4.37207L11.0612 4.37207L11.06 2.37207ZM8.95067 3.09512L10.2925 4.57821L10.2995 4.57183L8.95067 3.09512ZM8.48192 3.63301L6.86213 2.45986C6.34654 3.17174 6.35617 4.1368 6.88586 4.83825C7.41555 5.5397 8.34113 5.8131 9.16694 5.51204L8.48192 3.63301ZM8.90418 3.50801L8.4851 1.55241C8.47538 1.55449 8.46567 1.55665 8.45599 1.55888L8.90418 3.50801ZM9.81356 3.44981L9.6472 5.44288L9.64831 5.44297L9.81356 3.44981ZM11.5468 4.09395L12.798 2.53371C12.7927 2.52944 12.7874 2.5252 12.782 2.52098L11.5468 4.09395ZM12.4948 6.15762L14.4925 6.06186L14.4925 6.06058L12.4948 6.15762ZM11.3057 8.30371L12.8028 9.62992L12.8032 9.62946L11.3057 8.30371ZM11.3214 8.72676L12.7353 7.31221C12.729 7.30601 12.7228 7.29985 12.7165 7.29373L11.3214 8.72676ZM12.1511 9.55606L10.7372 10.9706L10.7457 10.979L12.1511 9.55606ZM12.5862 9.55996L13.9658 11.0079C13.9701 11.0039 13.9744 10.9998 13.9786 10.9957L12.5862 9.55996ZM15.0147 7.89785L14.822 5.90716C14.8141 5.90792 14.8063 5.90873 14.7985 5.90958L15.0147 7.89785ZM15.8468 8.07832L14.8466 9.81026C14.8517 9.81322 14.8568 9.81616 14.862 9.81908L15.8468 8.07832ZM15.9671 8.17129L14.531 9.56333C14.5347 9.5671 14.5384 9.57086 14.542 9.5746L15.9671 8.17129ZM15.9475 9.09863L17.3212 10.5523C17.3308 10.5432 17.3403 10.534 17.3498 10.5247L15.9475 9.09863ZM15.8694 9.17246L14.4957 7.71884C14.4859 7.72813 14.4762 7.73752 14.4665 7.74701L15.8694 9.17246ZM15.8694 9.47871L17.2772 8.05809L17.2723 8.05326L15.8694 9.47871ZM17.2097 10.8068L15.8019 12.2275L15.8061 12.2316L17.2097 10.8068ZM17.3659 10.8686L17.3944 8.86876C17.3679 8.86838 17.3414 8.86853 17.3149 8.86921L17.3659 10.8686ZM17.5222 10.8068L18.9096 12.2473C18.9159 12.2412 18.9222 12.2351 18.9285 12.2288L17.5222 10.8068ZM19.6886 8.66426L21.0949 10.0863C21.1107 10.0707 21.1261 10.0549 21.1413 10.0388L19.6886 8.66426ZM13.5897 9.18598C13.4576 8.94536 13.2926 8.72426 13.0997 8.52903L10.2548 11.3409C10.1873 11.2727 10.1297 11.1954 10.0835 11.1113L13.5897 9.18598ZM13.0817 8.51108L12.3653 7.80444L9.55635 10.6522L10.2728 11.3588L13.0817 8.51108ZM12.3876 7.82683C12.1399 7.57459 11.8473 7.37075 11.5248 7.22575L9.88432 10.8739C9.7534 10.815 9.6346 10.7322 9.53401 10.6298L12.3876 7.82683ZM11.5192 7.22325C10.9999 6.9916 10.4226 6.92254 9.86323 7.02514L10.5849 10.9595C10.3501 11.0026 10.1079 10.9736 9.8899 10.8764L11.5192 7.22325ZM9.86323 7.02514C9.30387 7.12773 8.78866 7.39719 8.38531 7.79807L11.2051 10.6351C11.0358 10.8034 10.8196 10.9164 10.5849 10.9595L9.86323 7.02514ZM8.39224 7.79123C8.1454 8.03418 7.68819 8.48276 6.86604 9.29512L9.67748 12.1404C10.496 11.3317 10.9481 10.8881 11.1982 10.642L8.39224 7.79123ZM6.86518 9.29597C5.34444 10.8004 2.4734 13.365 1.18455 14.4505L3.76132 17.51C5.10684 16.3768 8.06159 13.739 9.67834 12.1396L6.86518 9.29597ZM1.18944 14.4464C0.91072 14.6797 0.683458 14.9682 0.522058 15.2939L4.10601 17.0702C4.02146 17.2408 3.90242 17.3919 3.75642 17.5141L1.18944 14.4464ZM0.522058 15.2939C0.360659 15.6195 0.268644 15.9751 0.251833 16.3382L4.24755 16.5232C4.23875 16.7134 4.19055 16.8996 4.10601 17.0702L0.522058 15.2939ZM0.251833 16.3382C0.235022 16.7012 0.293785 17.0638 0.424398 17.403L4.15716 15.9654C4.22558 16.1431 4.25636 16.333 4.24755 16.5232L0.251833 16.3382ZM0.424398 17.403C0.555013 17.7421 0.754633 18.0505 1.01061 18.3085L3.8501 15.4911C3.98418 15.6263 4.08874 15.7878 4.15716 15.9654L0.424398 17.403ZM1.00841 18.3062L2.53185 19.8465L5.37574 17.0336L3.8523 15.4934L1.00841 18.3062ZM2.53736 19.852C2.79344 20.1089 3.09989 20.3101 3.43745 20.4428L4.9014 16.7203C5.07722 16.7895 5.23684 16.8942 5.37023 17.0281L2.53736 19.852ZM3.43745 20.4428C3.775 20.5756 4.13637 20.6371 4.49885 20.6234L4.34855 16.6263C4.53736 16.6192 4.72558 16.6512 4.9014 16.7203L3.43745 20.4428ZM4.49885 20.6234C4.86132 20.6098 5.21705 20.5213 5.54368 20.3636L3.80433 16.7616C3.97446 16.6794 4.15975 16.6334 4.34855 16.6263L4.49885 20.6234ZM5.54368 20.3636C5.87033 20.2059 6.16081 19.9823 6.39687 19.7069L3.35993 17.1036C3.48289 16.9602 3.63419 16.8437 3.80433 16.7616L5.54368 20.3636ZM6.40172 19.7012C7.52416 18.3819 10.1025 15.5142 11.5967 14.0377L8.78513 11.1924C7.17776 12.7808 4.51702 15.7435 3.35508 17.1093L6.40172 19.7012ZM11.5935 14.0407C11.9952 13.6456 12.3087 13.3344 12.5532 13.0913C12.8014 12.8443 12.9679 12.678 13.0886 12.5593L10.2846 9.70672C10.1525 9.8365 9.96944 10.0194 9.73216 10.2554C9.49107 10.4952 9.18309 10.8009 8.78827 11.1893L11.5935 14.0407ZM13.1126 12.5353C13.5329 12.1079 13.8077 11.5589 13.898 10.9664L9.94366 10.3638C9.98009 10.1247 10.091 9.90318 10.2606 9.73073L13.1126 12.5353ZM13.898 10.9664C13.9883 10.3738 13.8895 9.7679 13.6156 9.23474L10.0576 11.0625C9.9471 10.8474 9.90723 10.6029 9.94366 10.3638L13.898 10.9664ZM21.0963 6.93114L19.7561 5.60302L16.9405 8.44425L18.2808 9.77238L21.0963 6.93114ZM19.7621 5.609C19.5492 5.39621 19.2951 5.22911 19.0154 5.11792L17.5378 8.83502C17.3118 8.74519 17.1065 8.61018 16.9345 8.43827L19.7621 5.609ZM19.0154 5.11792C18.7356 5.00672 18.4362 4.95378 18.1353 4.96233L18.2489 8.96072C18.0058 8.96762 17.7638 8.92486 17.5378 8.83502L19.0154 5.11792ZM18.2258 4.96181C17.9327 4.95686 17.6414 5.01008 17.369 5.11839L18.8465 8.83549C18.6277 8.92248 18.3938 8.96521 18.1583 8.96124L18.2258 4.96181ZM17.369 5.11839C17.0965 5.22669 16.8482 5.38794 16.6384 5.59279L19.4332 8.45448C19.2647 8.619 19.0653 8.7485 18.8465 8.83549L17.369 5.11839ZM16.6178 5.61326C16.7859 5.4442 16.9907 5.31609 17.2163 5.23885L18.5121 9.02315C18.867 8.90161 19.1893 8.70003 19.4539 8.43401L16.6178 5.61326ZM17.2163 5.23885C17.4419 5.1616 17.6822 5.1373 17.9187 5.16781L17.4068 9.13493C17.779 9.18294 18.1571 9.14469 18.5121 9.02315L17.2163 5.23885ZM17.8802 5.16322C17.9115 5.16664 17.9854 5.17696 18.088 5.21446C18.1868 5.25057 18.377 5.33568 18.5718 5.52417L15.7904 8.39888C16.3858 8.97487 17.1086 9.10269 17.4453 9.13951L17.8802 5.16322ZM18.581 5.5331C18.9219 5.8672 19.0231 6.24891 19.0504 6.449C19.0627 6.53938 19.0616 6.60121 19.0614 6.6118C19.0612 6.62023 19.061 6.61654 19.0648 6.56295C19.0674 6.52538 19.0745 6.43342 19.078 6.34003C19.0817 6.24157 19.0835 6.10266 19.0701 5.94315C19.043 5.62019 18.9474 5.13869 18.6116 4.66766L15.3546 6.98976C15.1391 6.68748 15.0942 6.39847 15.0841 6.27768C15.0769 6.19199 15.0856 6.12782 15.0748 6.27943C15.0698 6.35077 15.0419 6.65807 15.087 6.98887C15.1394 7.37375 15.3036 7.92186 15.7813 8.38995L18.581 5.5331ZM18.5877 4.63483C18.2549 4.18764 17.8901 3.76527 17.496 3.37105L14.667 6.19887C14.9239 6.45582 15.1617 6.73113 15.3785 7.0226L18.5877 4.63483ZM17.4897 3.36473C17.1157 2.99391 15.8149 1.76341 13.6512 0.88107L12.1408 4.58495C13.6286 5.19167 14.4958 6.02914 14.6734 6.2052L17.4897 3.36473ZM13.6542 0.882294C12.8305 0.544874 11.9489 0.371556 11.0589 0.372072L11.0612 4.37207C11.4304 4.37186 11.7961 4.44375 12.1378 4.58372L13.6542 0.882294ZM11.06 0.372071C9.4841 0.372071 8.22244 1.05156 7.60184 1.61841L10.2995 4.57183C10.2596 4.60826 10.2563 4.60438 10.3018 4.57649C10.3416 4.55213 10.403 4.5192 10.4826 4.48676C10.6435 4.42115 10.8424 4.37207 11.06 4.37207V0.372071ZM7.60884 1.61205C7.38219 1.81711 7.19029 2.04302 7.0802 2.17803C7.01888 2.25322 6.96764 2.31923 6.93087 2.36757C6.91232 2.39197 6.89701 2.41245 6.88546 2.42805C6.87967 2.43586 6.87479 2.4425 6.87089 2.44783C6.86894 2.45049 6.86723 2.45284 6.86577 2.45485C6.86504 2.45585 6.86437 2.45677 6.86376 2.45761C6.86346 2.45803 6.86317 2.45842 6.8629 2.4588C6.86276 2.45899 6.86263 2.45917 6.8625 2.45934C6.86244 2.45943 6.86234 2.45956 6.86231 2.45961C6.86222 2.45973 6.86213 2.45986 8.48192 3.63301C10.1017 4.80616 10.1016 4.80628 10.1015 4.8064C10.1015 4.80644 10.1014 4.80656 10.1014 4.80664C10.1012 4.8068 10.1011 4.80695 10.101 4.8071C10.1008 4.80739 10.1006 4.80767 10.1004 4.80793C10.1 4.80845 10.0997 4.80889 10.0995 4.80926C10.0989 4.81001 10.0986 4.81048 10.0984 4.81068C10.0981 4.81107 10.0986 4.81041 10.0998 4.80879C10.1022 4.80552 10.1074 4.7986 10.1148 4.7888C10.1301 4.76876 10.153 4.73926 10.1801 4.70596C10.2078 4.672 10.2354 4.63966 10.2602 4.61236C10.2871 4.58286 10.298 4.57321 10.2925 4.57819L7.60884 1.61205ZM9.16694 5.51204C9.22756 5.48994 9.28949 5.4716 9.35238 5.45714L8.45599 1.55888C8.23248 1.61027 8.01236 1.67543 7.79689 1.75398L9.16694 5.51204ZM9.32327 5.46361C9.42964 5.44081 9.53879 5.43383 9.6472 5.44288L9.97991 1.45674C9.47965 1.41498 8.97596 1.44722 8.4851 1.55241L9.32327 5.46361ZM9.64831 5.44297C9.72932 5.44968 9.88087 5.48077 10.0554 5.54654C10.1364 5.57707 10.2052 5.60872 10.257 5.63623C10.3121 5.66557 10.3269 5.679 10.3115 5.66691L12.782 2.52098C12.0517 1.94749 10.9376 1.53613 9.9788 1.45664L9.64831 5.44297ZM10.2955 5.65418C10.3681 5.71239 10.3946 5.75468 10.4149 5.80045C10.4419 5.86114 10.4845 5.99364 10.4972 6.25465L14.4925 6.06058C14.4301 4.7761 13.992 3.49127 12.798 2.53371L10.2955 5.65418ZM10.4971 6.25337C10.489 6.08356 10.5259 5.99077 10.5208 6.00517C10.5169 6.01618 10.4937 6.07343 10.4284 6.18027C10.2935 6.40096 10.0801 6.67097 9.80828 6.97796L12.8032 9.62946C13.1256 9.26536 13.5223 8.7883 13.8412 8.2667C14.1265 7.80004 14.5376 7.0026 14.4925 6.06186L10.4971 6.25337ZM9.80869 6.9775C9.41547 7.42138 9.20832 7.99962 9.23021 8.59218L13.2275 8.44455C13.2435 8.87956 13.0915 9.30406 12.8028 9.62992L9.80869 6.9775ZM9.23021 8.59218C9.25209 9.18476 9.50135 9.74614 9.92623 10.1598L12.7165 7.29373C13.0284 7.59739 13.2114 8.00952 13.2275 8.44455L9.23021 8.59218ZM9.90749 10.1413L10.7372 10.9706L13.5649 8.14151L12.7353 7.31221L9.90749 10.1413ZM10.7457 10.979C11.1734 11.4015 11.7488 11.6407 12.3499 11.6461L12.3858 7.64628C12.8244 7.65022 13.2443 7.82481 13.5564 8.13307L10.7457 10.979ZM12.3499 11.6461C12.951 11.6515 13.5306 11.4226 13.9658 11.0079L11.2066 8.11197C11.5242 7.80938 11.9471 7.64234 12.3858 7.64628L12.3499 11.6461ZM13.9786 10.9957C14.5224 10.4683 15.0547 10.0244 15.2292 9.917L13.1323 6.51073C12.5466 6.87127 11.7383 7.59615 11.1938 8.12427L13.9786 10.9957ZM15.2292 9.917C15.2854 9.88244 15.3179 9.87137 15.3202 9.87058C15.3218 9.87005 15.3162 9.87203 15.3024 9.87503C15.2892 9.87793 15.2657 9.88235 15.231 9.88613L14.7985 5.90958C14.3751 5.95562 13.7809 6.11139 13.1323 6.51073L15.2292 9.917ZM15.2075 9.88854C15.082 9.9007 14.9558 9.87333 14.8466 9.81026L16.847 6.34638C16.2342 5.99253 15.5262 5.83897 14.822 5.90716L15.2075 9.88854ZM14.862 9.81908C14.74 9.75008 14.6286 9.66396 14.531 9.56333L17.4031 6.77925C17.2347 6.60546 17.0422 6.45672 16.8315 6.33756L14.862 9.81908ZM14.542 9.5746C13.9723 8.99609 14.0621 8.14764 14.5453 7.67253L17.3498 10.5247C18.3462 9.54494 18.4665 7.85899 17.3921 6.76798L14.542 9.5746ZM14.5739 7.64501L14.4957 7.71884L17.2431 10.6261L17.3212 10.5523L14.5739 7.64501ZM14.4665 7.74701C14.2571 7.95312 14.0908 8.19884 13.9773 8.46984L17.6666 10.0153C17.5751 10.2337 17.4411 10.4318 17.2723 10.5979L14.4665 7.74701ZM13.9773 8.46984C13.8638 8.74082 13.8053 9.03171 13.8053 9.32559H17.8053C17.8053 9.56246 17.7581 9.79691 17.6666 10.0153L13.9773 8.46984ZM13.8053 9.32559C13.8053 9.61946 13.8638 9.91035 13.9773 10.1813L17.6666 8.63586C17.7581 8.85426 17.8053 9.08872 17.8053 9.32559H13.8053ZM13.9773 10.1813C14.0908 10.4523 14.2571 10.6981 14.4665 10.9042L17.2723 8.05326C17.4411 8.21938 17.5751 8.41743 17.6666 8.63586L13.9773 10.1813ZM14.4616 10.8993L15.8019 12.2275L18.6174 9.38622L17.2772 8.05809L14.4616 10.8993ZM15.8061 12.2316C16.0181 12.4405 16.27 12.6044 16.5467 12.7137L18.0163 8.99346C18.2393 9.08156 18.4423 9.21371 18.6132 9.38203L15.8061 12.2316ZM16.5467 12.7137C16.8235 12.8231 17.1194 12.8755 17.4169 12.8679L17.3149 8.86921C17.5546 8.86309 17.7932 8.90535 18.0163 8.99346L16.5467 12.7137ZM17.3374 12.8684C17.9228 12.8767 18.4879 12.6535 18.9096 12.2473L16.1347 9.36633C16.4726 9.04089 16.9254 8.86207 17.3944 8.86876L17.3374 12.8684ZM18.9285 12.2288L21.0949 10.0863L18.2822 7.24225L16.1158 9.38482L18.9285 12.2288ZM21.1413 10.0388C21.5327 9.62522 21.7508 9.07744 21.7508 8.50801H17.7508C17.7508 8.05482 17.9243 7.61886 18.2358 7.28969L21.1413 10.0388ZM21.7508 8.50801C21.7508 7.93858 21.5327 7.39079 21.1413 6.97719L18.2358 9.72633C17.9243 9.39716 17.7508 8.9612 17.7508 8.50801H21.7508Z" fill="white" mask="url(#path-1-outside-1_608_1338)"/>
</g>
</g>
</svg>
