<svg width="50" height="50" viewBox="0 0 50 50" fill="none" xmlns="http://www.w3.org/2000/svg">
<g id="svg">
<rect width="50" height="50" rx="25" fill="#FFF500"/>
<path id="Vector" d="M22 15H28M25 23V27M25 35C27.1217 35 29.1566 34.1571 30.6569 32.6569C32.1571 31.1566 33 29.1217 33 27C33 24.8783 32.1571 22.8434 30.6569 21.3431C29.1566 19.8429 27.1217 19 25 19C22.8783 19 20.8434 19.8429 19.3431 21.3431C17.8429 22.8434 17 24.8783 17 27C17 29.1217 17.8429 31.1566 19.3431 32.6569C20.8434 34.1571 22.8783 35 25 35Z" stroke="#1C1C22" stroke-width="2" stroke-linecap="round" stroke-linejoin="round"/>
</g>
</svg>
