<svg width="30" height="31" viewBox="0 0 30 31" fill="none" xmlns="http://www.w3.org/2000/svg">
<g id="svg">
<g id="trees">
<path id="Vector" d="M9.35778 20.2809V28.0258M17.1027 24.1533V28.0258M13.2302 12.536V12.7941C14.0768 13.1197 14.7822 13.732 15.2235 14.5244C15.6648 15.3168 15.8139 16.239 15.6449 17.1301C15.4759 18.0212 14.9995 18.8247 14.2987 19.4005C13.5979 19.9763 12.7173 20.2879 11.8103 20.2809H6.77614C5.88002 20.2586 5.01938 19.9261 4.34102 19.3401C3.66267 18.7541 3.20862 17.9509 3.05631 17.0676C2.90401 16.1842 3.06288 15.2754 3.50584 14.496C3.9488 13.7167 4.6484 13.1152 5.48533 12.7941V12.536C5.48533 11.5089 5.89331 10.524 6.61954 9.79773C7.34577 9.0715 8.33074 8.66351 9.35778 8.66351C10.3848 8.66351 11.3698 9.0715 12.096 9.79773C12.8222 10.524 13.2302 11.5089 13.2302 12.536Z" stroke="black" stroke-width="3" stroke-linecap="round" stroke-linejoin="round"/>
<path id="Vector_2" d="M15.8112 24.1531H26.525C26.7777 24.1495 27.0237 24.0719 27.2327 23.9298C27.4416 23.7878 27.6043 23.5875 27.7005 23.3539C27.7967 23.1202 27.8222 22.8635 27.7739 22.6155C27.7256 22.3675 27.6055 22.1391 27.4286 21.9587L23.5562 17.699H23.9434C24.196 17.6954 24.4421 17.6178 24.651 17.4758C24.86 17.3337 25.0227 17.1334 25.1189 16.8998C25.2151 16.6661 25.2406 16.4094 25.1923 16.1614C25.1439 15.9134 25.0239 15.685 24.847 15.5046L20.9745 11.2449H21.2327C21.4963 11.2687 21.7609 11.2108 21.9906 11.0792C22.2203 10.9475 22.4039 10.7485 22.5166 10.5089C22.6293 10.2694 22.6657 10.001 22.6207 9.74014C22.5758 9.47926 22.4517 9.23851 22.2653 9.05052L17.1021 3.5L15.2949 5.43623" stroke="black" stroke-width="3" stroke-linecap="round" stroke-linejoin="round"/>
</g>
</g>
</svg>
