<svg width="24" height="25" viewBox="0 0 24 25" fill="none" xmlns="http://www.w3.org/2000/svg">
<g clip-path="url(#clip0_1222_84)">
<path d="M6.78798 20.9541L16.851 10.8911L16.8377 19.6283C16.8377 20.1276 17.0361 20.6065 17.3892 20.9596C17.7422 21.3126 18.2211 21.511 18.7204 21.511C19.2197 21.511 19.6986 21.3126 20.0517 20.9596C20.4047 20.6065 20.6031 20.1276 20.6031 19.6283L20.6031 6.37007C20.5977 6.12327 20.5436 5.87997 20.444 5.65412C20.2538 5.19873 19.8917 4.83668 19.4364 4.64649C19.2105 4.54685 18.9672 4.49278 18.7204 4.4874L5.46216 4.4874C5.21464 4.48638 4.96937 4.53438 4.74049 4.62864C4.51162 4.72289 4.30367 4.86153 4.12865 5.03655C3.95362 5.21158 3.81498 5.41952 3.72073 5.6484C3.62648 5.87727 3.57847 6.12255 3.57949 6.37007C3.57847 6.61759 3.62648 6.86286 3.72073 7.09173C3.81498 7.32061 3.95362 7.52855 4.12865 7.70358C4.30367 7.8786 4.51162 8.01724 4.74049 8.11149C4.96937 8.20575 5.21464 8.25375 5.46216 8.25274L14.1993 8.23948L4.13633 18.3025C3.7847 18.6541 3.58716 19.131 3.58716 19.6283C3.58716 20.1256 3.7847 20.6025 4.13633 20.9541C4.48796 21.3058 4.96488 21.5033 5.46216 21.5033C5.95944 21.5033 6.43635 21.3058 6.78798 20.9541Z" fill="#1C1C22"/>
</g>
<defs>
<clipPath id="clip0_1222_84">
<rect width="24" height="24" fill="white" transform="translate(0 0.5)"/>
</clipPath>
</defs>
</svg>
