<svg width="36" height="19" viewBox="0 0 36 19" fill="none" xmlns="http://www.w3.org/2000/svg">
<path d="M34.5534 18.9985H30.6117C29.121 18.9985 28.6719 17.9258 25.9997 15.5503C23.6644 13.5508 22.678 13.3022 22.0873 13.3022C21.2703 13.3022 21.0475 13.5017 21.0475 14.5007V17.6496C21.0475 18.5013 20.7365 19 18.2319 19C15.8021 18.855 13.4458 18.1992 11.3571 17.0866C9.26844 15.9741 7.50717 14.4366 6.21837 12.6009C3.15822 9.21718 1.02898 5.24582 0 1.00262C0 0.477797 0.224552 0.00208211 1.35077 0.00208211H5.28907C6.30128 0.00208211 6.66575 0.402604 7.06303 1.32795C8.97518 6.32756 12.2381 10.6765 13.563 10.6765C14.0708 10.6765 14.2919 10.477 14.2919 9.35219V4.20219C14.1243 1.85277 12.72 1.65481 12.72 0.80466C12.7378 0.580369 12.8533 0.371066 13.0419 0.221208C13.2306 0.071349 13.4776 -0.00725849 13.7305 0.00208211H19.9212C20.7676 0.00208211 21.0475 0.376516 21.0475 1.27577V8.22735C21.0475 8.97775 21.4102 9.22635 21.6658 9.22635C22.1737 9.22635 22.564 8.97775 23.4951 8.15216C25.4907 5.98993 27.1212 3.58095 28.335 1.00108C28.4593 0.691337 28.6942 0.426197 29.0039 0.246104C29.3135 0.0660117 29.681 -0.0191475 30.0503 0.00361656H33.9903C35.1718 0.00361656 35.4223 0.528438 35.1718 1.27731C33.7388 4.12917 31.9656 6.83627 29.8827 9.35219C29.4578 9.92765 29.2885 10.2269 29.8827 10.9021C30.2731 11.4269 31.655 12.452 32.5825 13.4265C33.9333 14.6234 35.0543 16.0076 35.9025 17.5237C36.241 18.4997 35.6779 18.9985 34.5534 18.9985Z" fill="#3282FA"/>
</svg>
