<svg width="30" height="31" viewBox="0 0 30 31" fill="none" xmlns="http://www.w3.org/2000/svg">
<mask id="path-1-outside-1_1222_666" maskUnits="userSpaceOnUse" x="1" y="1" width="28" height="28" fill="black">
<rect fill="white" x="1" y="1" width="28" height="28"/>
<path d="M25.1488 13.3045H24.4082C24.1693 11.9568 23.6423 10.6766 22.8633 9.55137L23.3838 9.03184C23.4629 8.95287 23.5257 8.85908 23.5685 8.75583C23.6113 8.65259 23.6333 8.54191 23.6333 8.43013C23.6333 8.31836 23.6113 8.20768 23.5685 8.10443C23.5257 8.00119 23.4629 7.9074 23.3838 7.82843L22.1804 6.62501C22.1015 6.54594 22.0078 6.4832 21.9046 6.4404C21.8015 6.39759 21.6909 6.37556 21.5792 6.37556C21.4675 6.37556 21.3569 6.39759 21.2537 6.4404C21.1505 6.4832 21.0568 6.54594 20.9779 6.62501L20.4604 7.14258C19.3365 6.35865 18.0567 5.82667 16.7083 5.58303V4.8512C16.708 4.62552 16.6182 4.40917 16.4587 4.2496C16.2991 4.09002 16.0827 4.00026 15.8571 4H14.1557C13.9299 4 13.7134 4.08968 13.5538 4.24931C13.3941 4.40894 13.3045 4.62544 13.3045 4.8512V5.58009C11.9543 5.81967 10.6717 6.34797 9.54452 7.12888L9.03184 6.61621C8.95287 6.5371 8.85908 6.47435 8.75583 6.43153C8.65259 6.38871 8.54191 6.36667 8.43013 6.36667C8.31836 6.36667 8.20768 6.38871 8.10443 6.43153C8.00119 6.47435 7.9074 6.5371 7.82843 6.61621L6.62501 7.81962C6.54591 7.89859 6.48315 7.99238 6.44033 8.09563C6.39751 8.19888 6.37547 8.30955 6.37547 8.42133C6.37547 8.5331 6.39751 8.64378 6.44033 8.74703C6.48315 8.85028 6.54591 8.94407 6.62501 9.02304L7.13671 9.53473C6.35395 10.6606 5.82333 11.9421 5.58107 13.2917H4.8512C4.62552 13.292 4.40917 13.3818 4.2496 13.5413C4.09002 13.7009 4.00026 13.9173 4 14.1429V15.8443C4 16.0701 4.08968 16.2866 4.24931 16.4462C4.40894 16.6059 4.62544 16.6955 4.8512 16.6955H5.58107C5.82264 18.0442 6.35261 19.3247 7.13475 20.4496L6.61621 20.9682C6.5371 21.0471 6.47435 21.1409 6.43153 21.2442C6.38871 21.3474 6.36667 21.4581 6.36667 21.5699C6.36667 21.6816 6.38871 21.7923 6.43153 21.8956C6.47435 21.9988 6.5371 22.0926 6.61621 22.1716L7.81962 23.375C7.89851 23.4541 7.99222 23.5168 8.09538 23.5596C8.19855 23.6024 8.30915 23.6244 8.42084 23.6244C8.53253 23.6244 8.64313 23.6024 8.7463 23.5596C8.84946 23.5168 8.94317 23.4541 9.02206 23.375L9.54158 22.8564C10.6658 23.6364 11.9449 24.1649 13.2917 24.4062V25.1488C13.292 25.3745 13.3818 25.5908 13.5413 25.7504C13.7009 25.91 13.9173 25.9997 14.1429 26H15.8443C16.0701 26 16.2866 25.9103 16.4462 25.7507C16.6059 25.5911 16.6955 25.3746 16.6955 25.1488V24.4062C18.0412 24.1651 19.3192 23.6373 20.4428 22.8584L20.9682 23.3838C21.0471 23.4629 21.1409 23.5257 21.2442 23.5685C21.3474 23.6113 21.4581 23.6333 21.5699 23.6333C21.6816 23.6333 21.7923 23.6113 21.8956 23.5685C21.9988 23.5257 22.0926 23.4629 22.1716 23.3838L23.375 22.1804C23.4541 22.1014 23.5168 22.0076 23.5597 21.9044C23.6025 21.8011 23.6245 21.6904 23.6245 21.5787C23.6245 21.4669 23.6025 21.3562 23.5597 21.253C23.5168 21.1497 23.4541 21.0559 23.375 20.977L22.8506 20.4525C23.6316 19.3307 24.1616 18.0535 24.4043 16.7083H25.1488C25.3745 16.708 25.5908 16.6182 25.7504 16.4587C25.91 16.2991 25.9997 16.0827 26 15.8571V14.1557C26 13.9299 25.9103 13.7134 25.7507 13.5538C25.5911 13.3941 25.3746 13.3045 25.1488 13.3045Z"/>
</mask>
<path d="M25.1488 13.3045V16.3045V13.3045ZM24.4082 13.3045L21.4542 13.828C21.7081 15.2606 22.9533 16.3045 24.4082 16.3045V13.3045ZM22.8633 9.55137L20.744 7.42805C19.717 8.45305 19.5708 10.0661 20.3967 11.259L22.8633 9.55137ZM23.3838 9.03184L25.5031 11.1552L25.5033 11.155L23.3838 9.03184ZM23.3838 7.82843L21.2625 9.94975L21.2643 9.95156L23.3838 7.82843ZM22.1804 6.62501L20.0565 8.7438L20.0591 8.74633L22.1804 6.62501ZM20.9779 6.62501L23.0993 8.74634L23.1018 8.7438L20.9779 6.62501ZM20.4604 7.14258L18.744 9.6031C19.9365 10.4349 21.5537 10.2919 22.5817 9.2639L20.4604 7.14258ZM16.7083 5.58303H13.7083C13.7083 7.03412 14.7469 8.2772 16.1748 8.53522L16.7083 5.58303ZM16.7083 4.8512H19.7083L19.7083 4.84775L16.7083 4.8512ZM15.8571 4L15.8605 1H15.8571V4ZM14.1557 4V1V4ZM13.3045 5.58009L13.8286 8.53395C15.2609 8.27981 16.3045 7.03475 16.3045 5.58009H13.3045ZM9.54452 7.12888L7.4232 9.2502C8.44866 10.2757 10.0608 10.4208 11.2529 9.59491L9.54452 7.12888ZM9.03184 6.61621L6.90871 8.73572L6.91052 8.73753L9.03184 6.61621ZM7.82843 6.61621L9.94975 8.73753L9.95156 8.73571L7.82843 6.61621ZM6.62501 7.81962L8.74452 9.94275L8.74633 9.94094L6.62501 7.81962ZM6.62501 9.02304L8.74633 6.90172L8.74452 6.89991L6.62501 9.02304ZM7.13671 9.53473L9.59988 11.2473C10.4288 10.055 10.2848 8.44021 9.25803 7.41341L7.13671 9.53473ZM5.58107 13.2917V16.2917C7.03347 16.2917 8.27728 15.2513 8.53388 13.8218L5.58107 13.2917ZM4.8512 13.2917V10.2917L4.84775 10.2917L4.8512 13.2917ZM4 14.1429L1 14.1395V14.1429H4ZM4 15.8443H1H4ZM5.58107 16.6955L8.53407 16.1666C8.27792 14.7365 7.03389 13.6955 5.58107 13.6955V16.6955ZM7.13475 20.4496L9.25607 22.5709C10.2829 21.5441 10.4269 19.9293 9.59788 18.737L7.13475 20.4496ZM6.61621 20.9682L8.73572 23.0913L8.73753 23.0895L6.61621 20.9682ZM6.61621 22.1716L8.73753 20.0503L8.73571 20.0484L6.61621 22.1716ZM7.81962 23.375L9.94347 21.2562L9.94094 21.2537L7.81962 23.375ZM8.42084 23.6244V26.6244V23.6244ZM9.02206 23.375L6.90274 21.2517L6.89821 21.2562L9.02206 23.375ZM9.54158 22.8564L11.2516 20.3915C10.0603 19.5651 8.44844 19.7089 7.42226 20.7331L9.54158 22.8564ZM13.2917 24.4062H16.2917C16.2917 22.9534 15.2508 21.7094 13.8207 21.4532L13.2917 24.4062ZM13.2917 25.1488H10.2917L10.2917 25.1522L13.2917 25.1488ZM14.1429 26L14.1395 29H14.1429V26ZM16.6955 24.4062L16.1665 21.4532C14.7365 21.7094 13.6955 22.9534 13.6955 24.4062H16.6955ZM20.4428 22.8584L22.5641 20.7371C21.5384 19.7114 19.9257 19.5665 18.7336 20.3929L20.4428 22.8584ZM20.9682 23.3838L23.0913 21.2643L23.0895 21.2625L20.9682 23.3838ZM22.1716 23.3838L20.0503 21.2625L20.0484 21.2643L22.1716 23.3838ZM23.375 22.1804L21.2555 20.0572L21.2537 20.0591L23.375 22.1804ZM23.375 20.977L21.2537 23.0983L21.2555 23.1001L23.375 20.977ZM22.8506 20.4525L20.3885 18.7384C19.5584 19.9308 19.7019 21.5466 20.7293 22.5739L22.8506 20.4525ZM24.4043 16.7083V13.7083C22.9528 13.7083 21.7096 14.7473 21.4519 16.1757L24.4043 16.7083ZM25.1488 16.7083V19.7083L25.1522 19.7083L25.1488 16.7083ZM26 15.8571L29 15.8605V15.8571H26ZM25.1488 10.3045H24.4082V16.3045H25.1488V10.3045ZM27.3621 12.7809C27.0479 11.0081 26.3547 9.32401 25.3299 7.84371L20.3967 11.259C20.93 12.0293 21.2907 12.9056 21.4542 13.828L27.3621 12.7809ZM24.9826 11.6747L25.5031 11.1552L21.2645 6.90853L20.744 7.42805L24.9826 11.6747ZM25.5033 11.155C25.8615 10.7974 26.1457 10.3726 26.3396 9.90507L20.7973 7.6066C20.9056 7.34553 21.0643 7.10838 21.2643 6.90871L25.5033 11.155ZM26.3396 9.90507C26.5335 9.4375 26.6333 8.93629 26.6333 8.43013H20.6333C20.6333 8.14753 20.6891 7.86768 20.7973 7.6066L26.3396 9.90507ZM26.6333 8.43013C26.6333 7.92398 26.5335 7.42277 26.3396 6.9552L20.7973 9.25367C20.6891 8.99259 20.6333 8.71274 20.6333 8.43013H26.6333ZM26.3396 6.9552C26.1457 6.48763 25.8615 6.0629 25.5033 5.7053L21.2643 9.95156C21.0643 9.75189 20.9056 9.51474 20.7973 9.25367L26.3396 6.9552ZM25.5051 5.70711L24.3017 4.50369L20.0591 8.74633L21.2625 9.94975L25.5051 5.70711ZM24.3042 4.50622C23.9467 4.14781 23.5219 3.86346 23.0543 3.66944L20.7549 9.21135C20.4936 9.10294 20.2563 8.94406 20.0565 8.7438L24.3042 4.50622ZM23.0543 3.66944C22.5867 3.47543 22.0854 3.37556 21.5792 3.37556V9.37556C21.2963 9.37556 21.0162 9.31976 20.7549 9.21135L23.0543 3.66944ZM21.5792 3.37556C21.0729 3.37556 20.5716 3.47543 20.104 3.66944L22.4034 9.21135C22.1421 9.31976 21.862 9.37556 21.5792 9.37556V3.37556ZM20.104 3.66944C19.6364 3.86346 19.2116 4.14781 18.8541 4.50622L23.1018 8.7438C22.902 8.94406 22.6647 9.10294 22.4034 9.21135L20.104 3.66944ZM18.8566 4.50369L18.3391 5.02125L22.5817 9.2639L23.0993 8.74633L18.8566 4.50369ZM22.1767 4.68205C20.6986 3.65098 19.0152 2.95129 17.2417 2.63083L16.1748 8.53522C17.0981 8.70205 17.9745 9.06632 18.744 9.6031L22.1767 4.68205ZM19.7083 5.58303V4.8512H13.7083V5.58303H19.7083ZM19.7083 4.84775C19.7071 3.82762 19.3013 2.84961 18.58 2.12828L14.3373 6.37092C13.9352 5.96873 13.7089 5.42343 13.7083 4.85464L19.7083 4.84775ZM18.58 2.12828C17.8586 1.40694 16.8806 1.00117 15.8605 1L15.8536 7C15.2848 6.99935 14.7395 6.77311 14.3373 6.37092L18.58 2.12828ZM15.8571 1H14.1557V7H15.8571V1ZM14.1557 1C13.1343 1 12.1547 1.40575 11.4324 2.12799L15.6751 6.37063C15.2721 6.77361 14.7256 7 14.1557 7V1ZM11.4324 2.12799C10.7102 2.85023 10.3045 3.8298 10.3045 4.8512H16.3045C16.3045 5.42109 16.0781 5.96765 15.6751 6.37063L11.4324 2.12799ZM10.3045 4.8512V5.58009H16.3045V4.8512H10.3045ZM12.7803 2.62624C11.0049 2.94127 9.31835 3.63598 7.8361 4.66285L11.2529 9.59491C12.0251 9.05997 12.9037 8.69807 13.8286 8.53395L12.7803 2.62624ZM11.6658 5.00756L11.1532 4.49489L6.91052 8.73753L7.4232 9.2502L11.6658 5.00756ZM11.155 4.4967C10.7974 4.13847 10.3726 3.85428 9.90507 3.66038L7.6066 9.20268C7.34554 9.09441 7.10839 8.93573 6.90871 8.73571L11.155 4.4967ZM9.90507 3.66038C9.43751 3.46648 8.9363 3.36667 8.43013 3.36667V9.36667C8.14751 9.36667 7.86767 9.31094 7.6066 9.20268L9.90507 3.66038ZM8.43013 3.36667C7.92396 3.36667 7.42276 3.46648 6.9552 3.66038L9.25367 9.20268C8.9926 9.31094 8.71276 9.36667 8.43013 9.36667V3.36667ZM6.9552 3.66038C6.48764 3.85428 6.06291 4.13847 5.7053 4.4967L9.95156 8.73571C9.75188 8.93573 9.51473 9.09441 9.25367 9.20268L6.9552 3.66038ZM5.70711 4.49489L4.50369 5.6983L8.74633 9.94094L9.94975 8.73753L5.70711 4.49489ZM4.5055 5.69649C4.14728 6.05411 3.86309 6.47884 3.66918 6.9464L9.21148 9.24486C9.10322 9.50592 8.94454 9.74307 8.74452 9.94275L4.5055 5.69649ZM3.66918 6.9464C3.47528 7.41395 3.37547 7.91515 3.37547 8.42133H9.37547C9.37547 8.70395 9.31975 8.9838 9.21148 9.24486L3.66918 6.9464ZM3.37547 8.42133C3.37547 8.9275 3.47528 9.42871 3.66918 9.89626L9.21148 7.5978C9.31975 7.85885 9.37547 8.1387 9.37547 8.42133H3.37547ZM3.66918 9.89626C3.86309 10.3638 4.14728 10.7886 4.5055 11.1462L8.74452 6.89991C8.94453 7.09958 9.10321 7.33673 9.21148 7.5978L3.66918 9.89626ZM4.50369 11.1444L5.01539 11.6561L9.25803 7.41341L8.74633 6.90172L4.50369 11.1444ZM4.67353 7.8222C3.64441 9.30242 2.94678 10.9873 2.62826 12.7617L8.53388 13.8218C8.69989 12.8969 9.0635 12.0188 9.59988 11.2473L4.67353 7.8222ZM5.58107 10.2917H4.8512V16.2917H5.58107V10.2917ZM4.84775 10.2917C3.82762 10.2929 2.84961 10.6987 2.12828 11.42L6.37092 15.6627C5.96873 16.0648 5.42343 16.2911 4.85464 16.2917L4.84775 10.2917ZM2.12828 11.42C1.40694 12.1414 1.00117 13.1194 1 14.1395L7 14.1464C6.99935 14.7152 6.77311 15.2605 6.37092 15.6627L2.12828 11.42ZM1 14.1429V15.8443H7V14.1429H1ZM1 15.8443C1 16.8657 1.40575 17.8453 2.12799 18.5676L6.37063 14.3249C6.77361 14.7279 7 15.2744 7 15.8443H1ZM2.12799 18.5676C2.85023 19.2898 3.8298 19.6955 4.8512 19.6955V13.6955C5.42109 13.6955 5.96765 13.9219 6.37063 14.3249L2.12799 18.5676ZM4.8512 19.6955H5.58107V13.6955H4.8512V19.6955ZM2.62807 17.2245C2.94581 18.9983 3.64288 20.6826 4.67162 22.1622L9.59788 18.737C9.06235 17.9668 8.69948 17.09 8.53407 16.1666L2.62807 17.2245ZM5.01343 18.3283L4.49488 18.8468L8.73753 23.0895L9.25607 22.5709L5.01343 18.3283ZM4.4967 18.845C4.13848 19.2026 3.85429 19.6274 3.66038 20.0949L9.20268 22.3934C9.09441 22.6545 8.93572 22.8916 8.73571 23.0913L4.4967 18.845ZM3.66038 20.0949C3.46647 20.5625 3.36667 21.0637 3.36667 21.5699H9.36667C9.36667 21.8525 9.31094 22.1323 9.20268 22.3934L3.66038 20.0949ZM3.36667 21.5699C3.36667 22.076 3.46648 22.5772 3.66038 23.0448L9.20268 20.7463C9.31094 21.0074 9.36667 21.2872 9.36667 21.5699H3.36667ZM3.66038 23.0448C3.85428 23.5123 4.13847 23.9371 4.4967 24.2947L8.73571 20.0484C8.93574 20.2481 9.09441 20.4853 9.20268 20.7463L3.66038 23.0448ZM4.49489 24.2929L5.6983 25.4963L9.94094 21.2537L8.73753 20.0503L4.49489 24.2929ZM5.69577 25.4938C6.05332 25.8522 6.47806 26.1365 6.94568 26.3306L9.24508 20.7887C9.50637 20.8971 9.7437 21.0559 9.94347 21.2562L5.69577 25.4938ZM6.94568 26.3306C7.41329 26.5246 7.91457 26.6244 8.42084 26.6244V20.6244C8.70372 20.6244 8.98381 20.6802 9.24508 20.7887L6.94568 26.3306ZM8.42084 26.6244C8.9271 26.6244 9.42839 26.5246 9.896 26.3306L7.59659 20.7887C7.85787 20.6802 8.13796 20.6244 8.42084 20.6244V26.6244ZM9.896 26.3306C10.3636 26.1365 10.7884 25.8522 11.1459 25.4938L6.89821 21.2562C7.09798 21.056 7.3353 20.8971 7.59659 20.7887L9.896 26.3306ZM11.1414 25.4983L11.6609 24.9798L7.42226 20.7331L6.90274 21.2517L11.1414 25.4983ZM7.83161 25.3214C9.3099 26.3469 10.9918 27.0419 12.7627 27.3592L13.8207 21.4532C12.898 21.2879 12.0218 20.9258 11.2516 20.3915L7.83161 25.3214ZM10.2917 24.4062V25.1488H16.2917V24.4062H10.2917ZM10.2917 25.1522C10.2929 26.1724 10.6987 27.1504 11.42 27.8717L15.6627 23.6291C16.0648 24.0313 16.2911 24.5766 16.2917 25.1454L10.2917 25.1522ZM11.42 27.8717C12.1413 28.5931 13.1194 28.9988 14.1395 29L14.1464 23C14.7152 23.0007 15.2605 23.2269 15.6627 23.6291L11.42 27.8717ZM14.1429 29H15.8443V23H14.1429V29ZM15.8443 29C16.8658 29 17.8453 28.5942 18.5676 27.872L14.3249 23.6294C14.7279 23.2264 15.2744 23 15.8443 23V29ZM18.5676 27.872C19.2898 27.1498 19.6955 26.1702 19.6955 25.1488H13.6955C13.6955 24.5789 13.9219 24.0323 14.3249 23.6294L18.5676 27.872ZM19.6955 25.1488V24.4062H13.6955V25.1488H19.6955ZM17.2245 27.3592C18.994 27.0422 20.6745 26.3481 22.1519 25.3239L18.7336 20.3929C17.9639 20.9264 17.0884 21.2881 16.1665 21.4532L17.2245 27.3592ZM18.3214 24.9797L18.8468 25.5051L23.0895 21.2625L22.5641 20.7371L18.3214 24.9797ZM18.845 25.5033C19.2026 25.8615 19.6274 26.1457 20.0949 26.3396L22.3934 20.7973C22.6545 20.9056 22.8916 21.0643 23.0913 21.2643L18.845 25.5033ZM20.0949 26.3396C20.5625 26.5335 21.0637 26.6333 21.5699 26.6333V20.6333C21.8525 20.6333 22.1323 20.6891 22.3934 20.7973L20.0949 26.3396ZM21.5699 26.6333C22.076 26.6333 22.5772 26.5335 23.0448 26.3396L20.7463 20.7973C21.0074 20.6891 21.2873 20.6333 21.5699 20.6333V26.6333ZM23.0448 26.3396C23.5124 26.1457 23.9371 25.8615 24.2947 25.5033L20.0484 21.2643C20.2481 21.0643 20.4853 20.9056 20.7463 20.7973L23.0448 26.3396ZM24.2929 25.5051L25.4963 24.3017L21.2537 20.0591L20.0503 21.2625L24.2929 25.5051ZM25.4945 24.3035C25.8527 23.9459 26.1369 23.5212 26.3308 23.0536L20.7885 20.7551C20.8968 20.4941 21.0555 20.2569 21.2555 20.0572L25.4945 24.3035ZM26.3308 23.0536C26.5247 22.586 26.6245 22.0848 26.6245 21.5787H20.6245C20.6245 21.2961 20.6802 21.0162 20.7885 20.7551L26.3308 23.0536ZM26.6245 21.5787C26.6245 21.0725 26.5247 20.5713 26.3308 20.1037L20.7885 22.4022C20.6802 22.1411 20.6245 21.8613 20.6245 21.5787H26.6245ZM26.3308 20.1037C26.1369 19.6362 25.8527 19.2114 25.4945 18.8538L21.2555 23.1001C21.0555 22.9004 20.8968 22.6633 20.7885 22.4022L26.3308 20.1037ZM25.4963 18.8556L24.9719 18.3312L20.7293 22.5739L21.2537 23.0983L25.4963 18.8556ZM25.3126 22.1667C26.3402 20.6908 27.0373 19.0106 27.3566 17.2408L21.4519 16.1757C21.2858 17.0965 20.9231 17.9706 20.3885 18.7384L25.3126 22.1667ZM24.4043 19.7083H25.1488V13.7083H24.4043V19.7083ZM25.1522 19.7083C26.1724 19.7071 27.1504 19.3013 27.8717 18.58L23.6291 14.3373C24.0313 13.9352 24.5766 13.7089 25.1454 13.7083L25.1522 19.7083ZM27.8717 18.58C28.5931 17.8587 28.9988 16.8806 29 15.8605L23 15.8536C23.0007 15.2848 23.2269 14.7395 23.6291 14.3373L27.8717 18.58ZM29 15.8571V14.1557H23V15.8571H29ZM29 14.1557C29 13.1342 28.5942 12.1547 27.872 11.4324L23.6294 15.6751C23.2264 15.2721 23 14.7256 23 14.1557H29ZM27.872 11.4324C27.1498 10.7102 26.1702 10.3045 25.1488 10.3045V16.3045C24.5789 16.3045 24.0323 16.0781 23.6294 15.6751L27.872 11.4324Z" fill="#1C1C22" mask="url(#path-1-outside-1_1222_666)"/>
<path d="M10 15C10 16.3261 10.5268 17.5979 11.4645 18.5355C12.4021 19.4732 13.6739 20 15 20C16.3261 20 17.5979 19.4732 18.5355 18.5355C19.4732 17.5979 20 16.3261 20 15C20 13.6739 19.4732 12.4021 18.5355 11.4645C17.5979 10.5268 16.3261 10 15 10C13.6739 10 12.4021 10.5268 11.4645 11.4645C10.5268 12.4021 10 13.6739 10 15Z" stroke="#1C1C22" stroke-width="3" stroke-linecap="round" stroke-linejoin="round"/>
</svg>
